<svg width="82" height="60" viewBox="0 0 82 60" fill="none" xmlns="http://www.w3.org/2000/svg">
<path d="M20.3636 51.7841C20.3636 51.7841 20.3284 51.8193 20.3133 51.8193C20.2983 51.8193 20.2681 51.8042 20.258 51.779C20.258 51.779 19.8005 50.6125 19.8005 49.8181V1.87996L7.70784 7.55671L7.24022 39.1786C7.23017 39.2339 7.17988 39.2791 7.11955 39.2741C7.05921 39.2741 7.01396 39.2238 7.01396 39.1635L6.97876 7.03378C6.97876 6.9835 7.00893 6.94328 7.05418 6.92819L20.2731 0.00446944C20.2731 0.00446944 20.3234 -0.0055868 20.3435 0.00446944L46.7009 6.91814C46.7462 6.93322 46.7763 6.97847 46.7763 7.02373L46.5199 16.3811C46.5199 16.4414 46.4746 16.4866 46.4143 16.4917C46.3489 16.4917 46.3037 16.4565 46.2936 16.3961L46.0473 7.54665L20.8312 1.87996V49.8231C20.8312 50.6276 20.3636 51.7841 20.3636 51.7841Z" fill="white"/>
<path d="M81.2092 41.4966H46.7112C46.7112 41.4966 46.676 41.5016 46.6559 41.5066C46.6408 41.5066 46.6308 41.5066 46.6157 41.5167L20.3186 58.1196L7.08462 45.2375C7.08462 45.2375 7.05948 45.2375 7.04942 45.2325C7.02931 45.2274 7.0092 45.2174 6.98909 45.2174H0.246378C0.110619 45.2174 0 45.328 0 45.4638C0 45.5995 0.110619 45.7101 0.246378 45.7101H6.91869L20.198 59.9699C20.2332 59.99 20.2734 60.0001 20.3136 60.0001C20.3538 60.0001 20.3941 59.99 20.4293 59.9699L46.7716 41.9893H81.2092C81.3449 41.9893 81.4556 41.8787 81.4556 41.743C81.4556 41.6072 81.3449 41.4966 81.2092 41.4966Z" fill="white"/>
<path d="M47.0228 38.3841C45.6853 38.6557 43.6992 38.9574 41.8992 38.9574C36.2576 38.9574 35.0308 35.4427 35.0308 29.2832C35.0308 23.1238 36.147 19.4734 41.8992 19.4734C43.8048 19.4734 45.796 19.8002 47.0228 20.0466L46.9424 21.5198C45.7407 21.3036 43.5635 21.0019 42.0349 21.0019C37.4543 21.0019 36.7755 23.8931 36.7755 29.2883C36.7755 34.6835 37.4845 37.4389 42.0651 37.4389C43.6439 37.4389 45.6099 37.1673 46.9424 36.921L47.0228 38.3942V38.3841Z" fill="white"/>
<path d="M51.1411 32.0889V38.6858H49.4517V19.7449H56.3754C60.4381 19.7449 62.2633 21.7058 62.2633 25.7434C62.2633 29.781 60.4381 32.0939 56.3754 32.0939H51.1411V32.0889ZM56.3754 30.5905C59.3168 30.5905 60.5186 28.8206 60.5186 25.7384C60.5186 22.6562 59.3168 21.2433 56.3754 21.2433H51.1411V30.5905H56.3754Z" fill="white"/>
<path d="M63.4296 19.7449H66.5923L72.45 36.3176L78.2827 19.7449H81.4453V38.6858H79.7559V21.4896H79.3738L73.4305 38.0623H71.4394L65.4961 21.4896H65.114V38.6858H63.4246V19.7449H63.4296Z" fill="white"/>
</svg>
